The.Road.2009.1080p.BluRay.DTS.mkv
**********************************

TiTLE......  The Road
YEAR.......  2009
GENRE......  Adventure | Drama | Thriller 
iMDB RATE..  User Rating: 7.6/10 (23,659 votes)
iMDB URL...  http://www.imdb.com/title/tt0898367/
*************************************************
Nominated for BAFTA Film Award. Another 1 win & 10 nominations 

Video
Duration                         : 1h 51mn
Overall bit rate                 : 7 719 Kbps
Width                            : 1 920 pixels
Height                           : 816 pixels
Display aspect ratio             : 2.35:1
Frame rate                       : 23.976 fps
Stream size                      : 4.70 GiB (78%)

Audio
Format                           : DTS
Format/Info                      : Digital Theater Systems
Bit rate                         : 1 510 Kbps
Channel(s)                       : 6 channels
Channel positions                : Front: L C R, Surround: L R, LFE
Sampling rate                    : 48.0 KHz
Resolution                       : 24 bits
Stream size                      : 1.17 GiB (20%)
Language                         : English

Subtitles: English, Dutch, French, Brazil, Spanish
**************************************************

